name analog
datacolumns 19
datarows 50
range 0.2955 0.32
endheader
time	ground_force_vx	ground_force_vy	ground_force_vz	ground_force_px	ground_force_py	ground_force_pz	l_ground_force_vx	l_ground_force_vy	l_ground_force_vz	l_ground_force_px	l_ground_force_py	l_ground_force_pz	ground_torque_x	ground_torque_y	ground_torque_z	l_ground_torque_x	l_ground_torque_y	l_ground_torque_z
0.2955	-0.0	-0.0	-0.0	-6.389321327209473	-1.230923056602478	-842.6538696289062	-0.0	-0.0	-0.0	-0.0	-0.0	-0.0	-0.0	-0.0	-0.0	-0.0	-0.0	-0.0
0.296	-0.0	-0.0	-0.0	-4.8229289054870605	-0.0835738182067871	-837.7758178710938	-0.0	-0.0	-0.0	-0.0	-0.0	-0.0	-0.0	-0.0	-0.0	-0.0	-0.0	-0.0
0.2965	-0.0	-0.0	-0.0	-5.009498119354248	0.9996108412742616	-835.9986572265625	-0.0	-0.0	-0.0	-0.0	-0.0	-0.0	-0.0	-0.0	-0.0	-0.0	-0.0	-0.0
0.297	-0.0	-0.0	-0.0	-5.898799419403076	2.0309314727783203	-833.8577880859375	-0.0	-0.0	-0.0	-0.0	-0.0	-0.0	-0.0	-0.0	-0.0	-0.0	-0.0	-0.0
0.2975	-0.0	-0.0	-0.0	-7.226051330566406	2.031203269958496	-833.4940185546875	-0.0	-0.0	-0.0	-0.0	-0.0	-0.0	-0.0	-0.0	-0.0	-0.0	-0.0	-0.0
0.298	-0.0	-0.0	-0.0	-7.399174690246582	0.8886576890945435	-833.5780639648438	-0.0	-0.0	-0.0	-0.0	-0.0	-0.0	-0.0	-0.0	-0.0	-0.0	-0.0	-0.0
0.2985	-0.0	-0.0	-0.0	-7.1473493576049805	-0.6186631917953491	-836.3717041015625	-0.0	-0.0	-0.0	-0.0	-0.0	-0.0	-0.0	-0.0	-0.0	-0.0	-0.0	-0.0
0.299	-0.0	-0.0	-0.0	-7.055395126342773	-1.963454842567444	-836.7037353515625	-0.0	-0.0	-0.0	-0.0	-0.0	-0.0	-0.0	-0.0	-0.0	-0.0	-0.0	-0.0
0.2995	-0.0	-0.0	-0.0	-8.041693687438965	-3.399691343307495	-839.8619384765625	-0.0	-0.0	-0.0	-0.0	-0.0	-0.0	-0.0	-0.0	-0.0	-0.0	-0.0	-0.0
0.3	-0.0	-0.0	-0.0	-9.558080673217772	-5.226078033447266	-839.5782470703125	-0.0	-0.0	-0.0	-0.0	-0.0	-0.0	-0.0	-0.0	-0.0	-0.0	-0.0	-0.0
0.3005	-0.0	-0.0	-0.0	-11.082015991210938	-5.330415725708008	-839.1358032226562	-0.0	-0.0	-0.0	-0.0	-0.0	-0.0	-0.0	-0.0	-0.0	-0.0	-0.0	-0.0
0.301	-0.0	-0.0	-0.0	-12.400260925292969	-5.692105293273926	-837.7427978515625	-0.0	-0.0	-0.0	-0.0	-0.0	-0.0	-0.0	-0.0	-0.0	-0.0	-0.0	-0.0
0.3015	-0.0	-0.0	-0.0	-11.68657684326172	-6.253583908081055	-838.0768432617188	-0.0	-0.0	-0.0	-0.0	-0.0	-0.0	-0.0	-0.0	-0.0	-0.0	-0.0	-0.0
0.302	-0.0	-0.0	-0.0	-11.313005447387695	-6.609976291656494	-840.8740844726562	-0.0	-0.0	-0.0	-0.0	-0.0	-0.0	-0.0	-0.0	-0.0	-0.0	-0.0	-0.0
0.3025	-0.0	-0.0	-0.0	-9.815506935119627	-7.503396511077881	-839.9456787109375	-0.0	-0.0	-0.0	-0.0	-0.0	-0.0	-0.0	-0.0	-0.0	-0.0	-0.0	-0.0
0.303	-0.0	-0.0	-0.0	-9.104096412658691	-7.934916019439697	-842.324951171875	-0.0	-0.0	-0.0	-0.0	-0.0	-0.0	-0.0	-0.0	-0.0	-0.0	-0.0	-0.0
0.3035	-0.0	-0.0	-0.0	-9.09718132019043	-8.917617797851562	-842.6148071289062	-0.0	-0.0	-0.0	-0.0	-0.0	-0.0	-0.0	-0.0	-0.0	-0.0	-0.0	-0.0
0.304	-0.0	-0.0	-0.0	-9.115235328674316	-9.358692169189451	-838.11376953125	-0.0	-0.0	-0.0	-0.0	-0.0	-0.0	-0.0	-0.0	-0.0	-0.0	-0.0	-0.0
0.3045	-0.0	-0.0	-0.0	-9.286745071411133	-9.432345390319824	-837.3370971679688	-0.0	-0.0	-0.0	-0.0	-0.0	-0.0	-0.0	-0.0	-0.0	-0.0	-0.0	-0.0
0.305	-0.0	-0.0	-0.0	-9.369300842285156	-8.278149604797363	-831.0497436523438	-0.0	-0.0	-0.0	-0.0	-0.0	-0.0	-0.0	-0.0	-0.0	-0.0	-0.0	-0.0
0.3055	-0.0	-0.0	-0.0	-9.003786087036133	-6.945701122283936	-829.3348388671875	-0.0	-0.0	-0.0	-0.0	-0.0	-0.0	-0.0	-0.0	-0.0	-0.0	-0.0	-0.0
0.306	-0.0	-0.0	-0.0	-8.653419494628906	-6.317668914794922	-828.8965454101562	-0.0	-0.0	-0.0	-0.0	-0.0	-0.0	-0.0	-0.0	-0.0	-0.0	-0.0	-0.0
0.3065	-0.0	-0.0	-0.0	-7.319458484649658	-5.698056221008301	-825.3565673828125	-0.0	-0.0	-0.0	-0.0	-0.0	-0.0	-0.0	-0.0	-0.0	-0.0	-0.0	-0.0
0.307	-0.0	-0.0	-0.0	-7.473087787628174	-4.375620365142822	-822.5560302734375	-0.0	-0.0	-0.0	-0.0	-0.0	-0.0	-0.0	-0.0	-0.0	-0.0	-0.0	-0.0
0.3075	-0.0	-0.0	-0.0	-6.433259963989258	-3.990679502487183	-821.7697143554688	-0.0	-0.0	-0.0	-0.0	-0.0	-0.0	-0.0	-0.0	-0.0	-0.0	-0.0	-0.0
0.308	-0.0	-0.0	-0.0	-6.2447357177734375	-3.1294662952423096	-818.9772338867188	-0.0	-0.0	-0.0	-0.0	-0.0	-0.0	-0.0	-0.0	-0.0	-0.0	-0.0	-0.0
0.3085	-0.0	-0.0	-0.0	-6.675105571746826	-3.143066644668579	-816.2686767578125	-0.0	-0.0	-0.0	-0.0	-0.0	-0.0	-0.0	-0.0	-0.0	-0.0	-0.0	-0.0
0.309	-0.0	-0.0	-0.0	-5.965575218200684	-4.627101898193359	-818.6559448242188	-0.0	-0.0	-0.0	-0.0	-0.0	-0.0	-0.0	-0.0	-0.0	-0.0	-0.0	-0.0
0.3095	-0.0	-0.0	-0.0	-4.287752628326416	-5.360990524291992	-816.206298828125	-0.0	-0.0	-0.0	-0.0	-0.0	-0.0	-0.0	-0.0	-0.0	-0.0	-0.0	-0.0
0.31	-0.0	-0.0	-0.0	-3.919678688049317	-6.231689929962158	-819.0316772460938	-0.0	-0.0	-0.0	-0.0	-0.0	-0.0	-0.0	-0.0	-0.0	-0.0	-0.0	-0.0
0.3105	-0.0	-0.0	-0.0	-3.919795274734497	-6.768448352813721	-817.5899047851562	-0.0	-0.0	-0.0	-0.0	-0.0	-0.0	-0.0	-0.0	-0.0	-0.0	-0.0	-0.0
0.311	-0.0	-0.0	-0.0	-3.4827768802642822	-6.955735206604004	-815.8809814453125	-0.0	-0.0	-0.0	-0.0	-0.0	-0.0	-0.0	-0.0	-0.0	-0.0	-0.0	-0.0
0.3115	-0.0	-0.0	-0.0	-3.306074619293213	-7.217802047729492	-818.968505859375	-0.0	-0.0	-0.0	-0.0	-0.0	-0.0	-0.0	-0.0	-0.0	-0.0	-0.0	-0.0
0.312	-0.0	-0.0	-0.0	-3.7537336349487305	-7.570919513702393	-818.9970092773438	-0.0	-0.0	-0.0	-0.0	-0.0	-0.0	-0.0	-0.0	-0.0	-0.0	-0.0	-0.0
0.3125	-0.0	-0.0	-0.0	-3.928630828857422	-7.222928047180176	-819.783935546875	-0.0	-0.0	-0.0	-0.0	-0.0	-0.0	-0.0	-0.0	-0.0	-0.0	-0.0	-0.0
0.313	-0.0	-0.0	-0.0	-4.45885705947876	-7.917603492736816	-821.130126953125	-0.0	-0.0	-0.0	-0.0	-0.0	-0.0	-0.0	-0.0	-0.0	-0.0	-0.0	-0.0
0.3135	-0.0	-0.0	-0.0	-4.019361972808838	-8.63913631439209	-822.9221801757812	-0.0	-0.0	-0.0	-0.0	-0.0	-0.0	-0.0	-0.0	-0.0	-0.0	-0.0	-0.0
0.314	-0.0	-0.0	-0.0	-4.45416259765625	-9.014884948730469	-825.059814453125	-0.0	-0.0	-0.0	-0.0	-0.0	-0.0	-0.0	-0.0	-0.0	-0.0	-0.0	-0.0
0.3145	-0.0	-0.0	-0.0	-5.1742095947265625	-10.604949951171877	-830.3135986328125	-0.0	-0.0	-0.0	-0.0	-0.0	-0.0	-0.0	-0.0	-0.0	-0.0	-0.0	-0.0
0.315	-0.0	-0.0	-0.0	-6.243205547332764	-11.049112319946287	-829.3088989257812	-0.0	-0.0	-0.0	-0.0	-0.0	-0.0	-0.0	-0.0	-0.0	-0.0	-0.0	-0.0
0.3155	-0.0	-0.0	-0.0	-6.866226673126221	-10.787758827209473	-829.6609497070312	-0.0	-0.0	-0.0	-0.0	-0.0	-0.0	-0.0	-0.0	-0.0	-0.0	-0.0	-0.0
0.316	-0.0	-0.0	-0.0	-6.961325645446777	-10.501420974731444	-828.8960571289062	-0.0	-0.0	-0.0	-0.0	-0.0	-0.0	-0.0	-0.0	-0.0	-0.0	-0.0	-0.0
0.3165	-0.0	-0.0	-0.0	-6.335377216339111	-9.354403495788574	-826.0935668945312	-0.0	-0.0	-0.0	-0.0	-0.0	-0.0	-0.0	-0.0	-0.0	-0.0	-0.0	-0.0
0.317	-0.0	-0.0	-0.0	-5.70947265625	-8.743124008178711	-823.3341064453125	-0.0	-0.0	-0.0	-0.0	-0.0	-0.0	-0.0	-0.0	-0.0	-0.0	-0.0	-0.0
0.3175	-0.0	-0.0	-0.0	-5.716238498687744	-9.079133987426758	-826.7406005859375	-0.0	-0.0	-0.0	-0.0	-0.0	-0.0	-0.0	-0.0	-0.0	-0.0	-0.0	-0.0
0.318	-0.0	-0.0	-0.0	-5.88523006439209	-8.825240135192871	-823.6103515625	-0.0	-0.0	-0.0	-0.0	-0.0	-0.0	-0.0	-0.0	-0.0	-0.0	-0.0	-0.0
0.3185	-0.0	-0.0	-0.0	-5.975811004638672	-8.55522632598877	-823.27783203125	-0.0	-0.0	-0.0	-0.0	-0.0	-0.0	-0.0	-0.0	-0.0	-0.0	-0.0	-0.0
0.319	-0.0	-0.0	-0.0	-5.788650035858154	-8.287874221801758	-821.8397827148438	-0.0	-0.0	-0.0	-0.0	-0.0	-0.0	-0.0	-0.0	-0.0	-0.0	-0.0	-0.0
0.3195	-0.0	-0.0	-0.0	-5.439375877380371	-8.47231388092041	-821.153076171875	-0.0	-0.0	-0.0	-0.0	-0.0	-0.0	-0.0	-0.0	-0.0	-0.0	-0.0	-0.0
0.32	-0.0	-0.0	-0.0	-4.820949077606201	-8.923774719238281	-821.8781127929688	-0.0	-0.0	-0.0	-0.0	-0.0	-0.0	-0.0	-0.0	-0.0	-0.0	-0.0	-0.0
